# xmcd
#
# Track frame offsets:
#	150
#	18951
#	36852
#	51987
#	77276
#	96401
#	110158
#	121625
#	137936
#	149737
#	161965
#	181604
#	195710
#	211676
#	225481
#	238118
#	251862
#	265478
#
# Disc length: 3755 seconds
# Revision: 1
# Processed by: cddbd v1.5.2PL0 Copyright (c) Steve Scherf et al.
# Submitted via: dBpowerAMP V12.0
#
DISCID=030ea912
DTITLE=Various Artist - Ultimate... Country, Disc 2
DYEAR=2015
DGENRE=Country
TTITLE0=Dolly Parton and Kenny Rogers - Islands in the Stream
TTITLE1=Billy Swan - I Can Help
TTITLE2=Brooks and Dunn - Ain't Nothing 'Bout You
TTITLE3=Sara Evans - Born to Fly
TTITLE4=Kris Kristofferson - Me and Bobby McGee
TTITLE5=The Highwaymen - Highwayman
TTITLE6=Waylon Jennings and Willie Nelson - Mammas Don't Let Your Babies Grow up to Be Cowboys [Remastered]
TTITLE7=Joe Diffie - Pickup Man
TTITLE8=Johnny Paycheck - Take This Job and Shove It
TTITLE9=Clint Black - A Good Run of Bad Luck [Single Edit Version]
TTITLE10=Martina McBride - I Just Call You Mine
TTITLE11=Love and Theft - Angel Eyes
TTITLE12=Mary Chapin Carpenter - I Feel Lucky
TTITLE13=Richochet - Daddy's Money
TTITLE14=Jake Owen - Barefoot Blue Jean Night
TTITLE15=Patty Loveless - Here I Am
TTITLE16=Merle Haggard - That's the Way Love Goes
TTITLE17=Earl Thomas Conley with Emmylou Harris - We Believe in Happy Endings
EXTD=
EXTT0=
EXTT1=
EXTT2=
EXTT3=
EXTT4=
EXTT5=
EXTT6=
EXTT7=
EXTT8=
EXTT9=
EXTT10=
EXTT11=
EXTT12=
EXTT13=
EXTT14=
EXTT15=
EXTT16=
EXTT17=
PLAYORDER=
